<svg width="32" height="32" xmlns="http://www.w3.org/2000/svg"><path d="M16 0c8.837 0 16 7.163 16 16s-7.163 16-16 16S0 24.837 0 16 7.163 0 16 0zm-.01 25c-.657 0-1.153.145-1.488.436-.335.29-.502.65-.502 1.078 0 .429.167.784.502 1.065.335.28.831.421 1.489.421.657 0 1.157-.14 1.498-.421.34-.281.511-.636.511-1.065 0-.428-.17-.788-.511-1.078-.341-.29-.84-.436-1.498-.436zm.598-21c-1.945 0-3.524.529-4.737 1.587-1.141.995-1.755 2.285-1.841 3.87l-.01.3h2.965c0-.967.332-1.738.994-2.312.663-.574 1.54-.862 2.63-.862 1.121 0 1.976.317 2.564.95.588.632.882 1.506.882 2.623 0 1.076-.387 2.088-1.161 3.035l-.186.218-2.1 2.153c-.823.893-1.368 1.706-1.635 2.44-.243.667-.384 1.553-.424 2.66L14.52 21h2.966c0-1.508.34-2.688 1.02-3.538l.15-.178 1.747-1.722C22.134 13.755 23 11.92 23 10.06c0-1.882-.564-3.362-1.691-4.441C20.18 4.539 18.608 4 16.589 4z" fill="#17a2b8" fill-rule="evenodd"/></svg>